<svg width="31" height="31" viewBox="0 0 31 31" fill="none" xmlns="http://www.w3.org/2000/svg">
<path d="M15.5 31C24.0604 31 31 24.0604 31 15.5C31 6.93959 24.0604 0 15.5 0C6.93959 0 0 6.93959 0 15.5C0 24.0604 6.93959 31 15.5 31Z" fill="white"/>
<path fill-rule="evenodd" clip-rule="evenodd" d="M7.01656 15.3364C11.5351 13.3677 14.5482 12.0698 16.0558 11.4428C20.3603 9.65238 21.2548 9.34137 21.8377 9.3311C21.966 9.32884 22.2527 9.36062 22.4384 9.51131C22.5952 9.63855 22.6383 9.81043 22.659 9.93107C22.6796 10.0517 22.7053 10.3265 22.6849 10.5413C22.4516 12.9922 21.4423 18.9399 20.9288 21.685C20.7115 22.8465 20.2837 23.236 19.8695 23.2741C18.9694 23.3569 18.2859 22.6792 17.4141 22.1077C16.0499 21.2135 15.2792 20.6568 13.955 19.7842C12.4247 18.7757 13.4167 18.2215 14.2889 17.3156C14.5171 17.0786 18.483 13.4712 18.5598 13.144C18.5694 13.1031 18.5783 12.9505 18.4877 12.87C18.3971 12.7894 18.2633 12.817 18.1668 12.8389C18.0299 12.8699 15.8506 14.3104 11.6288 17.1602C11.0102 17.585 10.4499 17.792 9.94786 17.7811C9.39443 17.7692 8.32985 17.4682 7.53845 17.211C6.56776 16.8954 5.79627 16.7286 5.86345 16.1927C5.89844 15.9136 6.28281 15.6282 7.01656 15.3364Z" fill="black"/>
</svg>
