<svg width="31" height="31" viewBox="0 0 31 31" fill="none" xmlns="http://www.w3.org/2000/svg">
<g clip-path="url(#clip0_5_8567)">
<mask id="mask0_5_8567" style="mask-type:luminance" maskUnits="userSpaceOnUse" x="0" y="0" width="31" height="31">
<path d="M30.8474 0H0.154297V31H30.8474V0Z" fill="white"/>
</mask>
<g mask="url(#mask0_5_8567)">
<path fill-rule="evenodd" clip-rule="evenodd" d="M2.31185 2.17913C0.154297 4.35826 0.154297 7.86551 0.154297 14.88V16.12C0.154297 23.1345 0.154297 26.6417 2.31185 28.8209C4.4694 31 7.94193 31 14.887 31H16.1147C23.0597 31 26.5323 31 28.6898 28.8209C30.8474 26.6417 30.8474 23.1345 30.8474 16.12V14.88C30.8474 7.86551 30.8474 4.35826 28.6898 2.17913C26.5323 0 23.0597 0 16.1147 0H14.887C7.94193 0 4.4694 0 2.31185 2.17913ZM5.33381 9.42924C5.50005 17.4892 9.49012 22.333 16.4856 22.333H16.8821V17.7217C19.4527 17.98 21.3964 19.8788 22.1765 22.333H25.8086C24.8111 18.6646 22.1893 16.6367 20.5523 15.8617C22.1893 14.9059 24.4913 12.5809 25.0412 9.42924H21.7416C21.0254 11.9867 18.9027 14.3117 16.8821 14.5313V9.42924H13.5825V18.3675C11.5363 17.8509 8.95302 15.3451 8.83792 9.42924H5.33381Z" fill="white"/>
</g>
</g>
<defs>
<clipPath id="clip0_5_8567">
<rect width="31" height="31" fill="white"/>
</clipPath>
</defs>
</svg>
