<svg width="45" height="33" viewBox="0 0 45 33" fill="none" xmlns="http://www.w3.org/2000/svg">
<path fill-rule="evenodd" clip-rule="evenodd" d="M17.974 22.3188V9.69217C22.4564 11.8014 25.9281 13.8389 30.034 16.0357C26.6475 17.9138 22.4564 20.0211 17.974 22.3188ZM42.9548 3.41239C42.1815 2.39368 40.8637 1.6007 39.4607 1.33817C35.3368 0.555058 9.60972 0.55283 5.48809 1.33817C4.36299 1.54909 3.36113 2.0589 2.5005 2.85099C-1.12582 6.21676 0.0104989 24.2663 0.884581 27.1901C1.25214 28.4556 1.7273 29.3683 2.32571 29.9674C3.0967 30.7595 4.1523 31.3049 5.36481 31.5495C8.76027 32.2518 26.2531 32.6445 39.3889 31.6549C40.5992 31.444 41.6705 30.8811 42.5155 30.0553C45.8683 26.703 45.6398 7.6398 42.9548 3.41239Z" fill="white"/>
</svg>
